<?xml version="1.0" standalone="no"?><!DOCTYPE svg PUBLIC "-//W3C//DTD SVG 1.1//EN" "http://www.w3.org/Graphics/SVG/1.1/DTD/svg11.dtd"><svg t="1697364332952" class="icon" viewBox="0 0 1024 1024" version="1.1" xmlns="http://www.w3.org/2000/svg" p-id="7516" data-darkreader-inline-fill="" xmlns:xlink="http://www.w3.org/1999/xlink" width="200" height="200"><path d="M591.62819 121.904762c7.68 0 21.187048 1.633524 31.524572 4.973714 50.907429 16.505905 80.213333 70.582857 68.339809 124.708572l-1.219047 5.071238-45.372953 170.179047h179.736381c21.820952 0 43.398095 8.094476 58.026667 24.283429 16.335238 18.090667 22.698667 42.032762 17.846857 65.267809l-1.219047 4.973715-94.768762 337.432381a59.294476 59.294476 0 0 1-52.662857 43.154285l-4.388572 0.146286H268.190476V444.001524c97.084952-21.016381 239.079619-279.28381 239.079619-279.28381C527.457524 137.337905 551.936 121.904762 591.62819 121.904762zM828.952381 501.126095c0-0.316952-0.146286-0.512-0.560762-0.975238 0.341333 0.390095-0.975238-0.170667-3.754667-0.170667H549.692952l69.900191-262.217142c5.022476-18.773333-4.144762-36.498286-18.968381-41.301334a52.589714 52.589714 0 0 0-9.020952-1.414095c-10.922667 0-15.457524 1.26781-21.065143 7.558095l-1.950477 2.29181-9.216 16.091428-9.874285 16.700953a1534.683429 1534.683429 0 0 1-72.216381 110.201905c-28.013714 38.765714-55.53981 72.167619-82.553905 98.816-17.968762 17.724952-35.59619 32.49981-53.394286 43.958857V828.952381h395.605334L828.952381 501.126095zM121.904762 438.857143h73.142857v463.238095H121.904762z" p-id="7517"></path></svg>