<?xml version="1.0" standalone="no"?><!DOCTYPE svg PUBLIC "-//W3C//DTD SVG 1.1//EN" "http://www.w3.org/Graphics/SVG/1.1/DTD/svg11.dtd"><svg t="1697364339681" class="icon" viewBox="0 0 1024 1024" version="1.1" xmlns="http://www.w3.org/2000/svg" p-id="7674" data-darkreader-inline-fill="" xmlns:xlink="http://www.w3.org/1999/xlink" width="200" height="200"><path d="M591.62819 121.904762c7.68 0 21.187048 1.633524 31.524572 4.973714 50.907429 16.505905 80.213333 70.582857 68.339809 124.708572l-1.219047 5.071238-45.372953 170.179047h179.736381c21.820952 0 43.398095 8.094476 58.026667 24.283429 16.335238 18.090667 22.698667 42.032762 17.846857 65.267809l-1.219047 4.973715-94.768762 337.432381a59.294476 59.294476 0 0 1-52.662857 43.154285l-4.388572 0.146286H268.190476V444.001524c97.084952-21.016381 239.079619-279.28381 239.079619-279.28381C527.457524 137.337905 551.936 121.904762 591.62819 121.904762zM121.904762 438.857143h73.142857v463.238095H121.904762z" p-id="7675"></path></svg>